<svg width="200" height="173" fill="none" xmlns="http://www.w3.org/2000/svg"><g clip-path="url(#a)"><path d="M198.158 18.957c-.556-.233-.838-.34-1.394-.572-4.269-1.727-6.491-2.571-10.809-4.104a.074.074 0 0 1-.039-.02C157.768 4.803 128.869 0 100.019 0c-28.85 0-59.405 5.084-88.294 15.115-.185.068-.37.146-.536.243a220.21 220.21 0 0 0-7.963 3.075c-.555.224-.838.34-1.394.573A2.97 2.97 0 0 0-.01 21.742v7.926c0 2.377.682 4.385 1.96 5.821V53.34a13.36 13.36 0 0 0-.712 1.33C.39 56.474-.02 58.365-.02 60.431v7.878a2.963 2.963 0 0 0 2.983 2.96c.39 0 .77-.078 1.14-.224.536-.223.81-.33 1.336-.543a379.695 379.695 0 0 1 18.713-6.743c.507-.165 1.023-.34 1.53-.524a273.59 273.59 0 0 1 20.351-5.103c-.419 4.22-.643 10.245.945 13.01.82 1.426 1.462 2.523 1.94 3.338L45.4 78.235c-.556.592-.897 1.349-.848 2.154.048.805.37 1.504.984 2.028.614.65.273 1.067.02 1.377-.293.35-.663.718-1.092 1.155-1.501 1.494-3.548 3.531-6.121 8.285-2.632 4.86-4.142 10.391-4.142 15.183 0 6.083 1.062 11.623 3.148 16.464a2.992 2.992 0 0 0 2.349 1.766c.068.873.166 1.746.282 2.639.04.291.117.572.244.834 1.14 2.503 4.142 6.986 6.238 9.605a2.984 2.984 0 0 0 3.44.912c.059-.019.127-.049.186-.078a52.151 52.151 0 0 0 2.582 3.25c.264.301.576.553.936.728 1.891.941 3.636 1.494 5.829 1.843.156.03.312.039.477.039.322 0 .634-.048.926-.145.37.514 3.158 2.483 3.275 2.503 1.355 3.512 4.454 11.555 5.78 11.555.165 0 .331-.01.497-.039a95.331 95.331 0 0 1 4.785-.689c-.536 2.571.322 4.89 2.447 6.549.195.155.4.281.624.378.068.029.165.068.243.097.215.078.439.136.663.165.195.116.41.204.624.272l.487.155c.439.136.945.291 1.482.466.146.048.302.087.458.106.136.068.282.136.428.185.566.194 1.063.368 1.511.533.517.194 1.053.398 1.599.602 6.237 2.357 10.526 3.9 13.128 3.9 2.603 0 6.891-1.543 13.129-3.9.546-.204 1.072-.408 1.589-.602a43.183 43.183 0 0 1 1.93-.669c.136-.049.263-.097.389-.155.137-.02.273-.059.41-.097.399-.127.779-.243 1.13-.35.351-.106.663-.204.926-.291.312-.097.605-.252.868-.446a3.13 3.13 0 0 0 1.267-.66c1.842-1.63 2.573-3.822 2.076-6.219 1.501.175 3.06.398 4.668.67.166.029.332.039.498.039 1.325 0 4.912-9.237 5.779-11.555.117-.02 2.905-1.989 3.275-2.503a3.025 3.025 0 0 0 1.404.106c2.183-.349 3.927-.902 5.828-1.843.361-.175.673-.427.936-.728a51.919 51.919 0 0 0 2.573-3.25c.058.029.117.059.185.078a2.987 2.987 0 0 0 3.441-.912c2.095-2.619 5.097-7.102 6.237-9.605.127-.271.205-.553.244-.844a63.62 63.62 0 0 0 .283-2.629 2.992 2.992 0 0 0 2.349-1.766c2.085-4.831 3.148-10.371 3.148-16.464 0-4.792-1.511-10.322-4.143-15.183-2.573-4.754-4.629-6.791-6.12-8.285-.429-.427-.809-.805-1.092-1.155-.156-.194-.643-.776 0-1.358a2.953 2.953 0 0 0 .156-4.2l-3.519-3.755c.488-.815 1.131-1.912 1.94-3.338 1.628-2.833 1.335-9.158.897-13.437a273.876 273.876 0 0 1 32.475 8.732c1.072.378 2.115.563 3.119.563 1.95 0 3.665-.709 4.961-2.038 1.199-1.232 1.93-2.872 2.203-4.87.175-1.349.341-2.6.478-3.745l.068-.505c.156-1.27.341-2.716.536-4.346.195-1.552.409-3.172.643-4.831v-.059l.02-.068c.38-3.182.838-6.752 1.345-10.623 1.208-.98 2.641-2.833 2.641-6.15v-8.073a2.96 2.96 0 0 0-1.842-2.736h-.039Z" fill="#fff"/><path d="M195.643 21.13c-4.249-1.717-6.384-2.532-10.682-4.055-57.554-18.753-114.883-18.472-172.252.844v.049c-3.362 1.222-5.029 1.872-8.352 3.22l-1.375.563v7.927c0 2.105.692 3.677 1.97 4.492v20.043a11.08 11.08 0 0 0-.985 1.708c-.663 1.416-.985 2.891-.985 4.511v7.878l1.375-.563c7.475-3.026 11.257-4.395 18.898-6.81.507-.155 1.014-.34 1.511-.524 53.967-15.232 106.901-14.155 160.205 3.22 2.037.719 3.801.476 4.961-.727.74-.756 1.208-1.833 1.384-3.201.204-1.543.38-2.95.546-4.23.156-1.271.341-2.717.536-4.337.195-1.562.409-3.202.653-4.88v-.068c.438-3.6.955-7.635 1.54-12.001.311-.155.614-.35.896-.572 1.014-.815 1.54-2.144 1.54-3.842v-8.072c-.546-.223-.818-.34-1.374-.563l-.01-.01Z" fill="#231F20"/><path d="M23.168 19.238c3.167-.999 5.633-.999 7.387-.048 1.755.95 2.642 2.668 2.642 5.132v20.8c0 2.465-.877 4.658-2.642 6.598-1.754 1.94-4.23 3.386-7.387 4.385-6.258 1.98-9.357 3.076-15.507 5.472v-2.959c0-.718.107-1.32.331-1.775.215-.466.546-.854.926-1.174.478-.398.721-.844.721-1.31V30.502c0-.524-.263-.805-.78-.834-.799-.049-1.198-.65-1.198-1.805V24.71c6.15-2.396 9.25-3.483 15.507-5.472Zm1.647 8.412c0-1.087-.293-1.785-.887-2.096-.585-.31-1.394-.3-2.398.03-1.091.358-1.637.533-2.729.902-.448.184-.702.388-.76.601a2.382 2.382 0 0 0-.088.621v23.76c0 .165.03.3.088.407.058.107.253.127.575.049.965-.33 1.452-.485 2.427-.805 1.296-.427 2.251-.883 2.856-1.407.604-.524.916-1.155.916-1.911V27.65ZM45.604 19.142c-.185.184-.282.369-.282.533v8.179c0 .233.097.378.282.456.185.078.4.087.653.03 3.129-.68 4.698-.99 7.837-1.563.204-.039.428-.02.653.058.224.078.34.243.34.505v3.939c0 .456-.311.747-.935.854-3.168.582-4.746.892-7.895 1.571-.623.136-.926.417-.926.844v9.217c0 .194.108.34.312.427.205.087.439.106.683.048 1.988-.427 2.982-.63 4.97-1.018.37-.078.692-.301.868-.66.087-.165.185-.398.312-.65.126-.252.302-.505.526-.737.224-.243.507-.466.838-.68a3.103 3.103 0 0 1 1.18-.436c1.55-.281 2.32-.408 3.869-.67v6.898c0 .36-.234.69-.682 1a3.47 3.47 0 0 1-1.375.572c-1.627.281-2.436.427-4.054.728-5.702 1.077-8.548 1.697-14.201 3.104-1.481.369-2.222.563-3.694.951v-2.959c0-.718.127-1.3.37-1.746.244-.447.595-.796.985-1.067.487-.34.74-.767.74-1.223V21.703c0-.524-.272-.844-.799-.931-.4-.058-.73-.233-.955-.514-.224-.282-.34-.757-.34-1.417v-3.105c8.81-2.328 13.254-3.298 22.192-4.821.497-.088.926 0 1.277.223.35.233.536.485.536.747v6.51c-1.472.242-2.213.369-3.684.63-.829.146-1.501.107-1.998-.126-.497-.233-.848-.485-1.063-.737-.282-.34-.73-.456-1.306-.34-1.861.37-2.797.563-4.659.96a1.24 1.24 0 0 0-.584.35l.01.01ZM79.132 8.188c1.423-.116 2.652.04 3.685.466 1.033.427 1.88.99 2.553 1.688a6.562 6.562 0 0 1 1.482 2.358c.312.873.477 1.688.477 2.445V21.8c0 1.213-.194 2.338-.594 3.386a7.329 7.329 0 0 1-1.862 2.736c-.838.786-1.91 1.436-3.216 1.94-1.306.505-2.856.834-4.659.99-1.54.136-2.3.213-3.84.378-.624.068-.945.3-.945.689v7.441c0 .33.068.553.185.67.126.116.273.252.438.349.302.174.673.407 1.004.737.331.33.507.767.507 1.33v3.104c-5.156.524-7.73.844-12.856 1.63v-3.105c0-.563.166-1.048.497-1.455a5.65 5.65 0 0 1 1.004-.99c.166-.126.312-.262.439-.407.127-.146.185-.369.185-.67V16.348c0-.262-.01-.476-.03-.64-.019-.166-.165-.311-.409-.389a3.77 3.77 0 0 1-1.247-.65c-.42-.33-.624-.844-.624-1.533v-2.862c7.105-1.096 10.672-1.513 17.826-2.095v.01Zm-.38 8.606c0-1.155-.36-1.882-1.072-2.173-.711-.301-1.53-.408-2.456-.31-.575.057-.867.086-1.442.145-.712.106-1.15.262-1.316.465-.166.204-.253.418-.253.64v9.76c0 .195.077.379.224.544.146.165.575.223 1.286.184l1.443-.145c1.384-.136 2.33-.553 2.826-1.271.507-.718.75-1.65.75-2.804v-5.026l.01-.01ZM112.583 38.885c.321.184.653.465.945.834.293.378.439.844.439 1.397v3.454c-5.039-.281-7.563-.35-12.612-.378v-2.853c0-.591.146-1.135.438-1.63.293-.485.634-.805.946-.98a2.94 2.94 0 0 0 .536-.387c.146-.127.244-.37.224-.64a5.683 5.683 0 0 0-.127-.738 9.308 9.308 0 0 0-.156-.621c-.058-.214-.117-.408-.156-.563a.775.775 0 0 0-.438-.524c-.215-.087-.487-.126-.819-.136-2.368-.019-3.557-.01-5.935.03-.38 0-.644.038-.79.087-.146.048-.263.242-.35.572-.04.165-.079.36-.128.573a3.268 3.268 0 0 1-.185.62 2.731 2.731 0 0 0-.185.738c-.02.272.039.504.127.64.087.126.234.272.438.388.312.165.653.485.946.99.292.504.438 1.048.438 1.65v2.803c-4.97.078-7.456.175-12.427.485v-3.454c0-.553.156-1.028.468-1.406.312-.379.634-.66.916-.844.205-.136.4-.301.566-.476.166-.174.302-.398.38-.66 1.247-4.317 2.242-8.42 3.216-11.933.42-1.494.819-2.959 1.2-4.385.38-1.426.73-2.707 1.042-3.832.312-1.126.565-2.038.76-2.736.195-.699.283-1.067.283-1.096.039-.233.127-.505.127-.718 0-.214-.108-.35-.312-.408a2.248 2.248 0 0 1-1.13-.776c-.293-.369-.44-.931-.44-1.678V7.48c3.909-.145 5.868-.175 9.776-.165.965 0 1.735.243 2.3.708.566.466.985 1.038 1.043 1.543.01.116.117.64.351 1.513.234.874.536 1.98.916 3.319.381 1.338.8 2.842 1.267 4.51.459 1.67.926 3.367 1.384 5.094 1.092 4.046 2.34 8.654 3.782 13.748.127.426.449.834.946 1.125l-.01.01Zm-11.482-9.43c.293 0 .488-.02.566-.068.087-.049.078-.194.058-.369 0-.058-.078-.407-.224-1.038-.146-.621-.312-1.378-.507-2.27-.185-.893-.399-1.853-.633-2.882a202.66 202.66 0 0 1-.634-2.881c-.185-.883-.35-1.62-.507-2.212-.146-.592-.38-1.814-.38-1.814s-.282 1.183-.41 1.794a68.124 68.124 0 0 1-.506 2.242c-.214.892-.429 1.843-.663 2.862-.234 1.018-.458 1.989-.663 2.89-.214.903-.39 1.67-.536 2.3-.146.63-.214.98-.224 1.038-.02.184-.02.32.059.369.087.048.273.068.565.068a182.4 182.4 0 0 1 4.61-.02l.029-.01ZM142.047 10.817v3.551c0 .563-.166.99-.497 1.3-.332.31-.702.524-1.004.68a1.519 1.519 0 0 0-.4.33c-.107.116-.175.32-.224.61v23.013c0 1.252-.331 2.29-1.004 3.114-.663.835-1.55 1.485-2.631 1.95-1.092.466-2.34.757-3.763.873-1.423.117-2.904.078-4.454-.087a27.146 27.146 0 0 1-4.532-.902c-1.472-.427-2.778-1-3.928-1.717-1.15-.718-2.076-1.562-2.768-2.542-.692-.98-1.043-2.096-1.043-3.347V14.669c0-.3-.058-.524-.185-.68a1.618 1.618 0 0 0-.507-.397c-.331-.184-.663-.475-.974-.873-.312-.398-.468-.902-.468-1.533V7.684c5.087.271 7.631.475 12.709.999v3.25c0 .563-.165 1.048-.497 1.475-.331.427-.682.718-1.004.883-.204.106-.37.223-.468.349-.107.126-.156.33-.156.62v21.296c0 1.28.351 2.212 1.034 2.785.692.582 1.618.93 2.797 1.057 1.169.126 2.105-.01 2.797-.437.692-.426 1.033-1.28 1.033-2.551V16.163c0-.3-.097-.582-.282-.854-.186-.271-.39-.504-.595-.64a3.197 3.197 0 0 1-.877-.893c-.254-.388-.38-.902-.38-1.523V9.052c4.922.582 7.378.93 12.271 1.746v.02ZM192.339 24.662v3.153c0 .563-.156.96-.448 1.203a2.173 2.173 0 0 1-.926.437c-.185.038-.37.135-.507.252-.136.116-.283.3-.331.514-1.053 4.473-1.219 9.605-1.745 13.544-.224 1.668-.458 3.337-.663 4.957-.204 1.62-.38 3.066-.536 4.337-.156 1.27-.341 2.687-.546 4.21-.078.592-.263 1.039-.545 1.33-.283.29-.683.349-1.209.165-3.548-1.252-5.331-1.853-8.918-2.97-.565-.212-1.004-.504-1.306-.872-.302-.369-.536-.835-.702-1.368-2.144-9.013-3.226-13.505-5.38-22.47-2.154 7.752-3.236 11.643-5.409 19.452-.244 1.02-.926 1.388-2.037 1.116a204.048 204.048 0 0 0-9.221-2.095c-1.033-.214-1.725-1.116-1.803-2.484 0-.03-.039-.466-.117-1.31-.078-.834-.204-1.94-.37-3.298-.166-1.368-.341-2.91-.526-4.638a526.83 526.83 0 0 0-.595-5.316c-.643-5.763-.965-8.645-1.618-14.408a2.09 2.09 0 0 0-.341-.708 2.577 2.577 0 0 0-.536-.543 4.731 4.731 0 0 1-.965-.96c-.312-.418-.468-.903-.468-1.465v-3.154c5.068.903 7.593 1.417 12.612 2.571v3.153c0 .592-.146 1.029-.438 1.31a2.451 2.451 0 0 1-.926.553c-.205.068-.38.185-.527.301-.146.116-.214.32-.214.62.945 9.538 1.413 14.301 2.349 23.848 1.364-4.841 2.573-9.188 3.645-13.03.448-1.63.907-3.23 1.355-4.812.448-1.581.848-3.007 1.17-4.288.331-1.28.604-2.328.828-3.134.224-.814.37-1.27.4-1.348.058-.155.204-.32.487-.388a5.08 5.08 0 0 1 1.043-.117c.409 0 .828.02 1.257.068.429.049.79.117 1.072.204.936.262 1.852.66 2.729 1.174.877.524 1.404.99 1.433 1.31.01.087.097.601.302 1.523l.79 3.522c.321 1.426.692 3.056 1.101 4.87.409 1.814.809 3.687 1.218 5.578.955 4.434 2.067 9.46 3.275 15.048 1.043-8.984 1.569-13.466 2.603-22.44 0-.291-.069-.544-.215-.738a3.573 3.573 0 0 0-.516-.591 5.359 5.359 0 0 1-.907-1.068c-.283-.436-.419-.95-.419-1.542v-3.153c4.922 1.63 7.368 2.512 12.232 4.404l.029-.02Z" fill="#FFCE34"/><path d="M160.429 108.398c0-4.502-1.482-9.517-3.782-13.776-3.177-5.86-5.4-7.15-6.891-8.945-2.436-2.93.263-5.424.263-5.424l-5.048-5.384s.906-1.436 3.07-5.2c2.164-3.765-.078-23.13-3.606-26.35-2.768-2.533-6.112.814-8.051 1.93-1.277.737-4.727.097-10.517 1.902-.399-.223-5.36-1.766-13.333-2.765-.068 0-.146-.02-.214-.03a113.953 113.953 0 0 0-3.558-.378 402.73 402.73 0 0 0-1.715-.145h-.039c-.556-.04-1.121-.078-1.696-.117-.137 0-.283-.02-.419-.02l-1.813-.086h-.059c-.584-.02-1.189-.04-1.793-.049h-.487c-.634-.01-1.277-.02-1.93-.02-15.75 0-26.462 3.29-27.057 3.61-5.79-1.805-9.24-1.165-10.516-1.902-1.93-1.116-5.273-4.463-8.051-1.93-3.528 3.22-5.77 22.585-3.606 26.35 2.163 3.764 3.07 5.2 3.07 5.2l-5.049 5.384s2.71 2.493.273 5.424c-1.5 1.804-3.723 3.085-6.89 8.944-2.3 4.26-3.782 9.275-3.782 13.777 0 6.772 1.374 11.739 2.904 15.29.75-1.513 1.608-3.056 2.583-4.482-.312 3.473-.117 6.801.253 9.663 1.014 2.212 3.899 6.529 5.858 8.984-.156-1.737-.234-3.571-.146-5.356 1.842 3.716 4.171 6.889 6.277 9.353 1.735.863 3.187 1.28 4.97 1.571-.321-2.852-.292-5.384-.292-5.384s2.154 4.89 4.62 7.723c3.45.562 7.29.465 9.318 1.542.01.126.039.243.058.369-2.349.359-4.483.912-6.54 1.426 2.583-.175 4.844-.252 6.784-.272.02.068.03.126.049.194.292.951.584 1.795.925 2.659-2.846.514-5.33 1.309-6.959 1.853 2.915-.369 5.4-.563 7.466-.67a47.33 47.33 0 0 0 1.121 2.28c-2.27.466-3.996 1.232-6.57 2.183a94.689 94.689 0 0 1 7.233-.941c.439.796.867 1.513 1.277 2.154-.059.465-.146.941-.263 1.407-.439 1.707.165 2.939 1.315 3.832.02 0 .05.019.069.029.126-1.048.604-2.154.604-2.154s.049 1.368.546 2.542c.555.175 1.237.378 1.998.621-.01-.32-.01-.757.029-1.232.117.446.556 1.086.897 1.533.516.174 1.062.368 1.598.562 4.883 1.834 11.15 4.308 13.675 4.308 2.524 0 8.791-2.474 13.674-4.308.702-.262 1.394-.494 2.047-.718.321-.436.682-.989.789-1.387.039.427.039.815.03 1.125.808-.252 1.52-.465 2.046-.64.449-1.135.497-2.416.497-2.416s.41.951.575 1.921c.995-.883 1.492-2.047 1.082-3.628a14.54 14.54 0 0 1-.273-1.407c.41-.64.839-1.348 1.277-2.144 1.93.175 4.298.456 7.125.931-2.544-.941-4.25-1.697-6.472-2.163.449-.854.809-1.601 1.131-2.299 2.047.106 4.493.3 7.349.659-1.599-.533-4.045-1.329-6.852-1.833.351-.864.643-1.708.936-2.668.019-.068.029-.126.048-.194 1.92.019 4.133.087 6.667.271-2.027-.514-4.133-1.057-6.433-1.406.02-.146.049-.292.068-.437 2.057-1.009 5.819-.931 9.201-1.484 2.466-2.833 4.62-7.723 4.62-7.723s.029 2.532-.292 5.384c1.783-.281 3.236-.708 4.97-1.571 2.106-2.455 4.445-5.637 6.277-9.353.098 1.785.02 3.629-.146 5.356 1.959-2.455 4.844-6.772 5.858-8.984.38-2.872.565-6.2.253-9.663a36.278 36.278 0 0 1 2.583 4.482c1.54-3.551 2.905-8.518 2.905-15.29h.029Z" fill="#231F20"/><path d="M152.631 98.036c-2.232-3.647-4.181-7.547-9.873-12.593-.975-4.54-2.339-7.11-3.957-9.614 2.144.437 3.752.893 3.752.893s-1.569-1.737-3.616-3.551c1.667-1.456 3.587-3.202 5.264-4.929 3.928-4.045.536-17.744.009-20.81v-.058c-.497-2.95-3.294-1.805-6.423 0-1.52.873-5.497 2.26-9.181 3.444-1.394.65-3.587 2.464-1.267 7.121 1.179 2.367-4.922-7.286-7.729-8.392-.078-.03-.146-.068-.214-.097-2.876-1.028-7.447-2.425-12.32-2.988a8.108 8.108 0 0 0-.517-.097c.653.388 1.501.902 2.885 1.62 5.497 2.833 5.254 2.717 8.275 4.152 2.71 1.281 2.885 1.407 3.002 4.405.098 2.804 1.803 4.055 3.928 5.734 2.125 1.668 4.737 3.929 6.043 5.578-1.638-.262-2.486 1.737.234 3.832 4.269 3.29 5.117 7.432 5.117 7.432s-4.737-5.268-9.211-8.169c-3.294-2.134.049-3.55-1.891-4.511-1.51-.747-3.937-2.765-5.779-5.142-1.842-2.377-2.846-6.597-5.078-7.218-2.076-.582-5.848-1.756-9.104-2.513-2.066-.475-4.6-2.891-6.17-4.58-1.568 1.689-4.103 4.105-6.169 4.58-3.245.757-7.027 1.93-9.103 2.513-2.232.63-3.236 4.85-5.078 7.218-1.842 2.377-4.27 4.385-5.78 5.142-1.93.96 1.404 2.377-1.89 4.511-4.474 2.9-9.211 8.169-9.211 8.169s.848-4.143 5.107-7.432c2.72-2.095 1.871-4.094.234-3.832 1.316-1.65 3.918-3.9 6.043-5.578 2.125-1.679 3.83-2.92 3.937-5.734.108-2.998.293-3.124 3.002-4.405 3.032-1.435 2.778-1.32 8.275-4.152 1.316-.68 2.144-1.184 2.788-1.562-5.185.534-10.078 2.066-13.012 3.124-2.807 1.125-8.889 10.75-7.72 8.392 2.379-4.802 0-6.578-1.393-7.18-3.636-1.173-7.515-2.522-9.006-3.385-3.129-1.805-5.936-2.95-6.433 0-.497 2.95-3.957 16.794 0 20.868 1.677 1.727 3.597 3.474 5.264 4.929-2.047 1.814-3.616 3.55-3.616 3.55s1.608-.455 3.752-.892c-1.618 2.493-2.982 5.074-3.957 9.615-5.692 5.044-7.641 8.945-9.873 12.592-3.12 5.104-3.295 14.679-3.295 14.679s3.295-6.364 3.295-4.404c0 11.069 1.998 14.523 1.998 14.523s.643-5.51 1.471-4.142c.088.213.186.417.283.62 1.062 2.746 3.548 12.118 5.858 14.893-.536-3.435-.263-7.412 2.124-5.162 6.472 8.703 11.316 11.361 14.806 12.845.526.204.984.185 1.393.049 1.706-.679 1.979-4.152.858-4.802-1.355-.359-3.86-.311-5.643-1.485-2.271-1.494-2.096-6.568-2.096-6.568s-.75.893-1.18 2.27a125.77 125.77 0 0 0-1.783-3.424c-.34-.612-1.822-2.824-3.518-5.501-3.022-6.161-3.285-11.672-3.285-11.672s-.867 1.747-1.023 4.366c-.78-1.494-1.375-2.833-1.628-3.822-.672-2.649-1.228-4.638-.8-7.218.44-2.581 4.475-8.305 4.475-8.305s-1.609.65-3.343 2.28c.886-2.493 2.134-4.366 3.216-5.54 1.335-1.339 3.031-3.095 7.437-5.287-6.989 9.294-3.685 16.745-2.232 18.608 1.432 1.833 1.647 2.959.662 3.609-.994.659 0 3.289 2.145 4.269 2.144.989 4.785 2.629 4.785 2.629s-4.454-.33-6.598-1.31c0 0-.069-.058-.186-.146 1.784 3.639 3.334 5.957 3.334 5.957s1.696 3.386 2.553 7.82c.264 1.387.673 2.377 1.228 3.124-.302-2.862 1.901-5.676 1.901-5.676s-.565 6.277 4.912 8.742c1.267.339 2.174.601 2.174.601h-.049c.643.175.653.185.653.185s-.224 2.638.273 5.18c.078.398.175.796.293 1.174v.029c.058.185.116.369.185.544 0 .009.01.029.02.038.067.165.136.321.204.486 0 .019.02.038.02.048.077.155.155.31.243.456.02.029.03.048.049.078.087.135.165.262.263.388 0 .009.02.029.03.038.097.127.204.243.311.359l.078.078c.117.107.234.214.36.311a12.898 12.898 0 0 1-.974-.389c-.107-.048-.205-.097-.302-.145-.195-.097-.39-.184-.566-.281-.117-.059-.224-.127-.33-.185-.147-.087-.303-.174-.44-.271-.117-.068-.224-.146-.34-.224-.118-.077-.225-.164-.332-.242a10.626 10.626 0 0 1-1.335-1.184l-.03-.029a9.58 9.58 0 0 1-.419-.475 21.116 21.116 0 0 0 .186 4.298l.428 1.571c.653 0 1.316 0 1.998.039.77.039 1.501.175 2.116.349 2.192.602 4.96 2.3 6.072 2.426-.76.718-2.34.64-4.075.301-1.442-.282-1.422-.806-5.038-1.475l-.644-.029.624 2.309c.37-.02.75-.029 1.12-.029.732 0 1.453.087 2.048.223 2.134.466 4.883 1.95 5.955 1.998-.682.728-2.203.738-3.89.505-1.383-.194-1.412-.689-4.814-1.135l.526 1.94c.156 0 .303-.019.459-.029a9 9 0 0 1 1.959.107c2.056.33 4.736 1.61 5.75 1.61-.614.728-2.056.806-3.674.67-1.248-.107-1.365-.524-4.074-.796 6.354 5.666 17.719 2.008 17.71 1.291-.03-1.989-.098-3.639-.176-4.948-1.394-.456-2.115-1.698-3.626-1.941-1.443-.223-4.844-1.358-5.76-3.007-.946-.767-2.29-1.921-3.353-3.124a12.13 12.13 0 0 1-1.033-1.329s-1.755-4.366-1.667-7.121c.088-2.756 1.18-2.863 1.599-4.919.409-2.047-.117-6.956 2.485-9.236-.127 3.502-.692 5.452.195 8.537.887 3.085.38 4.822-.78 5.152-1.16.33-1.257 4.356.331 6.83.732 1.145 1.502 2.522 2.125 3.677v-.029c.644-1.397 7.944 1.096 10.556 1.086 2.622 0 9.922-2.493 10.507-1.086.623-1.155 1.384-2.523 2.115-3.658 1.588-2.483 1.491-6.51.331-6.83-1.16-.33-1.667-2.066-.78-5.152.887-3.085.322-5.035.195-8.537 2.612 2.27 2.076 7.179 2.486 9.236.419 2.047 1.51 2.164 1.598 4.919.088 2.755-1.667 7.121-1.667 7.121-.282.436-.633.892-1.033 1.339l4.844-3.706c.497-2.542.273-5.181.273-5.181l.653-.184h-.039s.916-.262 2.193-.602c5.478-2.464 4.912-8.732 4.912-8.732s2.203 2.804 1.901 5.666c.556-.737.955-1.736 1.218-3.114.848-4.443 2.554-7.82 2.554-7.82s1.55-2.309 3.333-5.956c-.107.087-.175.145-.175.145-2.144.99-6.599 1.31-6.599 1.31s2.642-1.64 4.786-2.629c2.144-.98 3.129-3.609 2.144-4.269-.984-.66-.77-1.776.663-3.609 1.452-1.863 4.747-9.314-2.232-18.608 4.396 2.192 6.101 3.939 7.437 5.287 1.082 1.184 2.329 3.047 3.216 5.54-1.735-1.63-3.343-2.28-3.343-2.28s4.045 5.724 4.474 8.305c.438 2.58-.117 4.569-.8 7.218-.253.989-.847 2.328-1.627 3.822-.146-2.619-1.024-4.365-1.024-4.365s-.253 5.51-3.284 11.671c-1.696 2.678-3.178 4.88-3.519 5.501-.497.892-1.189 2.241-1.783 3.424-.439-1.377-1.18-2.27-1.18-2.27s.186 5.074-2.095 6.568c-1.833 1.203-4.415 1.116-5.741 1.504-1.325.883-.565 5.87 2.33 4.715.077-.029.136-.048.194-.068 3.47-1.494 8.256-4.21 14.62-12.758 2.388-2.25 2.661 1.727 2.125 5.162 2.31-2.785 4.786-12.147 5.858-14.892.097-.204.195-.408.282-.621.839-1.368 1.472 4.142 1.472 4.142s1.998-3.454 1.998-14.523c0-1.96 3.295 4.404 3.295 4.404s-.176-9.585-3.295-14.678l.068-.03Z" fill="#FFCE34"/><path d="M73.772 137.144c-1.355-.359-3.86-.31-5.644-1.484-2.27-1.494-2.095-6.568-2.095-6.568s-.75.892-1.18 2.27a125.926 125.926 0 0 0-1.783-3.425c-.341-.611-1.823-2.823-3.519-5.501-3.02-6.16-3.284-11.671-3.284-11.671s-.867 1.747-1.024 4.366c-.78-1.494-1.374-2.833-1.627-3.822-.673-2.649-1.228-4.638-.8-7.219.44-2.58 4.474-8.304 4.474-8.304s-1.608.65-3.343 2.28c.887-2.494 2.135-4.366 3.217-5.54 1.325-1.339 3.021-3.076 7.368-5.249l.03-.029s-2.827-.456-5.546-.398c.34-2.833.37-3.609 1.033-5.53-9.922 7.16-12.271 12.147-15.078 16.726-3.12 5.103-3.295 14.679-3.295 14.679s3.295-6.364 3.295-4.405c0 11.07 1.998 14.524 1.998 14.524s.643-5.511 1.471-4.143c.088.214.186.417.283.621 1.062 2.746 3.548 12.118 5.858 14.892-.536-3.434-.263-7.412 2.124-5.161 6.472 8.703 11.316 11.361 14.806 12.845 2.904 1.106 3.635-3.958 2.251-4.754h.01Z" fill="#fff"/><path d="M126.998 57.24c.097.233.205.476.331.718a9.27 9.27 0 0 0-.331-.717Zm17.212-9.788c-1.306-.854-2.904-.476-3.713 0-.799.475-5.536 4.637-7.758 6.597-2.223 1.96-3.646 6.781-3.46 8.663.185 1.882-1.199.757-1.453-1.067-.233-1.678.108-1.979-.37-3.318-.253 0-5.361-7.771-7.856-8.76-.078-.03-.146-.069-.214-.098-2.875-1.028-7.447-2.425-12.32-2.988-.165-.038-.341-.068-.516-.097.653.388 1.501.902 2.885 1.62 5.497 2.833 5.253 2.717 8.274 4.153 2.71 1.28 2.885 1.407 3.002 4.404.098 2.804 1.804 4.056 3.928 5.734 2.125 1.669 4.737 3.93 6.043 5.579-1.637-.262-2.485 1.736.234 3.832 4.269 3.289 5.117 7.431 5.117 7.431s-4.737-5.268-9.21-8.168c-3.295-2.135.048-3.551-1.891-4.512-1.511-.747-3.938-2.765-5.78-5.142-1.842-2.377-2.846-6.597-5.078-7.218-1.17-.33-2.875-.844-4.717-1.358l.565.65c2.154 2.202 2.388 4.628 1.91 7.441-.477 2.814-6.579 3.221-5.058 6.054 1.52 2.833.458 6.229-.185 7.14-.644.913-3.129 3.775-3.129 3.775s3.567.99.75 3.793c-.097.097-2.027 0-3.313-.194.75 1.193.331 3.619-.195 4.773-1.891 4.172.399 5.715 1.666 7.538 4.552 6.559.994 7.927 0 8.926-.994.99 0 3.726 0 3.726s.848 2.968.829 5.142c-.02 2.173 1.501 1.843 2.69 2.182.955.272 1.813.67 2.836 2.368 2.963 7.014-.643 15.348-.643 18.064 0 2.329 3.392 9.149-5.244 12.322-.253.087-.477.184-.682.262.877-.185 1.793-.388 2.68-.563h.029a38.692 38.692 0 0 1 1.521-.281c.049 0 .088-.01.136-.02.205-.029.4-.058.585-.077.029 0 .059 0 .088-.01.205-.02.4-.039.575-.049h.633c.147.01.283.029.4.059.02 0 .039.009.059.019a.787.787 0 0 1 .243.107c.02.009.039.029.059.039a.514.514 0 0 1 .165.194c.624-1.155 1.384-2.523 2.115-3.658 1.589-2.484 1.492-6.51.332-6.83-1.16-.33-1.667-2.067-.78-5.152s.322-5.035.195-8.537c2.612 2.27 2.076 7.179 2.485 9.236.419 2.047 1.511 2.163 1.599 4.919.088 2.755-1.667 7.121-1.667 7.121-.282.436-.633.883-1.023 1.329l4.834-3.697c-.039.195-.078.379-.127.573.653-2.697.39-5.753.39-5.753l.653-.185h-.039s.916-.262 2.193-.601c5.478-2.464 4.913-8.732 4.913-8.732s2.202 2.804 1.9 5.666c.556-.737.955-1.736 1.218-3.114.848-4.444 2.554-7.82 2.554-7.82s1.55-2.309 3.333-5.957l-.175.146c-2.144.989-6.599 1.31-6.599 1.31s2.642-1.64 4.786-2.63c2.144-.979 3.129-3.609 2.144-4.268-.984-.66-.77-1.776.663-3.609 1.452-1.863 4.747-9.314-2.232-18.608h.039s2.827-.456 5.546-.398c-.341-2.833-.361-3.61-1.033-5.53a68.355 68.355 0 0 1 5.204 4.133c-.984-4.929-2.271-7.005-3.957-9.615 2.145.437 3.753.893 3.753.893s-1.569-1.737-3.616-3.551c1.666-1.455 3.587-3.202 5.263-4.928 3.928-4.046.536-17.745.01-20.81l.009-.01Zm-7.115 25.496v-.049c-.292.272-.487.369-.565.214-.166-.04-.497-3.037-3.743-5.162-1.13-.747-1.851-1.474-2.28-2.231-.575-1.01-.595-2.057-.38-3.173.692-1.93 3.235-4.763 3.235-4.763s-.779.223-1.764.592c1.755-2.988 5.78-6.588 9.308-9.217 3.558-2.649 2.349 4.084 2.349 9.188 0 .126 0 .223-.019.32a20.625 20.625 0 0 1-.624 3.939 20.642 20.642 0 0 1-.984 2.803c1.306-.785 2.28-1.484 2.28-1.484s-1.764 6.229-6.803 9.023h-.01Z" fill="#FDB71A"/><path d="M97.758 152.609c-1.393-.456-2.115-1.698-3.626-1.94-1.442-.223-4.844-1.359-5.76-3.008-.945-.766-2.29-1.921-3.353-3.124l-4.844-3.706c.312 1.62.926 3.192 2.067 4.026-2.427-.844-3.987-2.134-5.078-3.424a21.075 21.075 0 0 0 .185 4.297l.429 1.572c.653 0 1.316 0 1.998.039.77.039 1.5.175 2.115.349 2.193.602 4.96 2.3 6.072 2.426-.76.718-2.34.64-4.074.3-1.443-.281-1.423-.805-5.04-1.474-.204-.01-.418-.02-.642-.029l.623 2.309c.37-.02.75-.029 1.121-.029.731 0 1.452.087 2.047.223 2.134.465 4.883 1.95 5.955 1.998-.682.728-2.203.738-3.889.505-1.384-.194-1.413-.689-4.815-1.135l.527 1.94c.156 0 .302-.019.458-.029a9 9 0 0 1 1.959.107c2.056.329 4.737 1.61 5.75 1.61-.614.728-2.056.805-3.674.67-1.248-.107-1.365-.524-4.074-.796 6.355 5.666 17.72 2.008 17.71 1.29-.03-1.989-.098-3.638-.176-4.948l.03-.019Z" fill="#fff"/><path d="M82.222 154.792c.877.145 1.862.456 2.788.776a10.447 10.447 0 0 1-1.57-1.038c.517.048 1.082.107 1.638.145 1.94.156 2.895-1.261 2.895-1.261-.683.728-2.203.738-3.89.505-1.383-.194-1.412-.689-4.814-1.135l.526 1.94c.156 0 .302-.019.458-.029a8.999 8.999 0 0 1 1.96.107l.01-.01Zm-1.842-3.59a39.946 39.946 0 0 1-.838-1.213c.8.165 2.436.621 4.162 1.009 2.037.456 3.596-.087 4.278-.873-.76.718-2.339.641-4.074.301-1.442-.281-1.423-.805-5.039-1.475l-.643-.029.283 1.038.34 1.271c.371-.019.751-.029 1.122-.029.136 0 .273 0 .41.01v-.01Zm17.378 1.417c-1.393-.456-2.115-1.698-3.626-1.941-1.442-.223-4.844-1.358-5.76-3.007l-.02-.02c-.194 3.542 6.336 3.173 6.336 6.86 0 2.386-4.26 1.998-6.706 1.891-.614.728-2.056.806-3.674.67-1.248-.107-1.365-.524-4.074-.796 6.355 5.666 17.72 2.009 17.71 1.291a110.56 110.56 0 0 0-.176-4.948h-.01ZM120.448 141.442c-1.091 1.291-2.651 2.581-5.068 3.425 1.14-.834 1.745-2.406 2.066-4.026l-4.844 3.706c-1.062 1.193-2.388 2.348-3.333 3.114-.858 1.611-3.947 2.736-5.702 3.017-1.783.282-2.583 1.417-3.694 1.902a112.425 112.425 0 0 0-.175 4.996c-.01.718 11.355 4.376 17.7-1.29-2.71.272-2.827.689-4.075.796-1.608.145-3.06.058-3.674-.67 1.023 0 3.704-1.28 5.76-1.61a9.002 9.002 0 0 1 1.959-.107c.156 0 .312.019.468.029l.526-1.94c-3.401.446-3.421.941-4.814 1.135-1.686.233-3.207.223-3.889-.505 1.072-.058 3.82-1.542 5.955-1.998a10.094 10.094 0 0 1 2.047-.223c.38 0 .75.009 1.121.029l.623-2.309-.643.029c-3.626.669-3.596 1.193-5.039 1.474-1.735.34-3.323.418-4.074-.3 1.111-.117 3.879-1.824 6.072-2.426a10.42 10.42 0 0 1 2.115-.349c.692-.039 1.355-.048 1.998-.039l.429-1.571c.244-1.64.253-3.124.185-4.298v.009ZM87.739 163.203s-.283-1.407 1.657-1.455c1.94-.049 3.343.048 5.195-.543a22.78 22.78 0 0 0 4.337.446c1.579 0 4.201-.446 4.201-.446s1.169.591 5.282.591c1.989 0 1.462 1.417 1.462 1.417s-8.06 3.716-10.994 3.716c-2.934 0-11.14-3.726-11.14-3.726Z" fill="#BCBEC0"/><path d="M152.632 98.036c-2.807-4.588-5.156-9.566-15.078-16.725.662 1.92.692 2.697 1.033 5.53-2.72-.049-5.546.397-5.546.397l.039.04c4.337 2.172 6.033 3.919 7.359 5.248 1.081 1.183 2.329 3.046 3.216 5.54-1.735-1.63-3.343-2.28-3.343-2.28s4.045 5.724 4.474 8.304c.438 2.581-.117 4.57-.8 7.218-.253.99-.848 2.329-1.627 3.823-.147-2.62-1.024-4.366-1.024-4.366s-.253 5.511-3.284 11.671c-1.696 2.678-3.178 4.88-3.519 5.501a102.48 102.48 0 0 0-1.783 3.425c-.439-1.378-1.18-2.27-1.18-2.27s.185 5.074-2.095 6.568c-1.833 1.203-4.416 1.116-5.741 1.504-1.326.883-.565 5.869 2.329 4.715.078-.029.137-.049.195-.068 3.47-1.494 8.256-4.211 14.62-12.758 2.388-2.251 2.661 1.727 2.125 5.161 2.31-2.784 4.785-12.146 5.858-14.892.097-.204.195-.407.282-.621.838-1.368 1.472 4.143 1.472 4.143s1.998-3.454 1.998-14.524c0-1.959 3.294 4.405 3.294 4.405s-.175-9.585-3.294-14.679l.02-.01ZM125.994 75.16c-1.014-1-7.748-7.577-13.879-7.577-.546 0-1.053-.02-1.55-.04-.331 3.241-1.072 10.256-1.618 13.215-.711 3.9-4.278 4.967-6.062 8.159-1.784 3.192 6.413 3.9 6.062 7.45-.36 3.552-3.206 6.035-1.189 13.021 0 0 3.334 3.657 6.472 5.277 1.793.922 2.027-2.444 4.016-5.733 1.5-2.474 3.128 2.542 5.038-.544 7.603-12.214 3.49-14.504.634-14.863-2.856-.359 2.495-3.192 3.918-7.101 1.17-3.202.41-7.451-1.852-11.274l.01.01Z" fill="#fff"/><path d="M125.994 75.16a41.255 41.255 0 0 0-.936-.893c4.328 9.935-1.968 8.46-3.323 12.166-.604 1.66-4.172 4.337-8.041 6.607 1.472.873 2.807 1.863 2.661 3.337-.185 1.815-7.437.37-9.211 9.974.107.912.293 1.921.614 3.046 0 0 3.334 3.658 6.472 5.278 1.793.922 2.027-2.445 4.016-5.734 1.501-2.474 3.128 2.542 5.039-.543 7.602-12.215 3.489-14.504.633-14.863-2.856-.36 2.495-3.192 3.918-7.102 1.17-3.202.41-7.45-1.852-11.273h.01Z" fill="#B3B3B3"/><path d="M88.655 80.758c-.536-2.96-1.277-9.974-1.608-13.214-.497.02-1.004.039-1.55.039-6.13 0-12.875 6.442-13.889 7.441-2.261 3.823-3.012 8.208-1.842 11.41 1.423 3.9 6.774 6.742 3.928 7.101-2.856.359-6.969 2.649.633 14.863 1.92 3.085 3.548-1.94 5.04.543 1.988 3.289 2.222 6.656 4.015 5.734 3.138-1.62 6.472-5.278 6.472-5.278 2.017-6.985-.838-9.469-1.19-13.02-.35-3.55 7.847-4.258 6.063-7.45-1.784-3.192-5.35-4.26-6.062-8.16l-.01-.01Z" fill="#fff"/><path d="M113.694 131.168c-.409-2.047.117-6.956-2.486-9.236.127 3.502.693 5.453-.194 8.538s-.381 4.821.779 5.151c1.16.33 1.258 4.356-.331 6.83-.721 1.135-1.491 2.503-2.115 3.658-.585-1.407-7.885 1.077-10.507 1.087-2.622 0-9.922-2.484-10.556-1.087v.029c-.623-1.164-1.393-2.542-2.124-3.677-1.589-2.484-1.492-6.51-.332-6.83 1.16-.33 1.657-2.066.78-5.152-.887-3.085-.322-5.035-.195-8.537-2.602 2.27-2.076 7.179-2.485 9.236-.41 2.047-1.51 2.163-1.599 4.919-.087 2.755 1.667 7.121 1.667 7.121 1.043 1.62 3.09 3.405 4.386 4.453.926 1.649 4.318 2.784 5.76 3.007 1.862.292 2.515 2.106 4.718 2.106 1.764 0 2.426-1.756 4.707-2.115 1.755-.282 4.844-1.407 5.702-3.017 1.296-1.048 3.333-2.833 4.366-4.444 0 0 1.755-4.366 1.667-7.121-.088-2.755-1.179-2.862-1.598-4.919h-.01ZM140.906 49.169c-3.528 2.638-7.553 6.238-9.308 9.216.985-.368 1.764-.592 1.764-.592s-2.543 2.833-3.235 4.764c-.215 1.116-.186 2.163.38 3.172.429.748 1.14 1.485 2.28 2.232 3.841 2.513 3.607 6.238 3.841 4.86.234-1.377-1.55-4.055 0-9.1 3.235-10.526 6.627-2.095 6.627-5.365 0-5.103 1.199-11.846-2.349-9.188Z" fill="#231F20"/><path d="M141.628 65.41c.409-.961.75-1.912.984-2.804.351-1.358.546-2.659.624-3.94-.244 2.33-3.499-5.083-6.618 5.046-1.55 5.045.234 7.722 0 9.1-.039.213-.059.291-.088.281.068.165.273.078.565-.203v.048c5.039-2.794 6.804-9.023 6.804-9.023s-.975.699-2.281 1.485l.01.01Z" fill="#BCBEC0"/><path d="M101.647 69.59s4.123 2.135 4.942 4.434c3.226-.601 7.816-.019 9.093 1.145 1.287 1.155 5.682 3.29 7.992 3.62-2.963.659-8.479.329-10.809-1.146-2.319-1.474-4.922-1.61-9.405.165 1.881-2.89-1.813-8.208-1.813-8.208v-.01ZM95.682 69.59s-4.123 2.135-4.941 4.434c-3.217-.601-7.817-.019-9.104 1.145-1.286 1.155-5.682 3.29-7.982 3.62 2.963.659 8.48.329 10.809-1.146 2.32-1.474 4.922-1.61 9.405.165-1.88-2.89 1.813-8.208 1.813-8.208v-.01ZM121.647 82.562c1.472 1.989 3.509 6.869 4.717 7.858 1.209.99 4.65 3.29 5 6.22.351 2.939.917 7.703.917 7.703s2.524-4.87 2.319-6.957c-.195-2.086-1.569-5.927-3.148-7.907-1.491-1.872-2.505-1.358-3.85-2.512-1.286-1.116-2.953-4.366-5.955-4.405ZM75.965 82.562c-1.472 1.989-3.509 6.869-4.718 7.858-1.208.99-4.649 3.29-5 6.22l-.916 7.703s-2.885-2.843-2.33-7.665c.245-2.076 1.57-5.22 3.149-7.199 1.491-1.872 2.505-1.358 3.85-2.512 1.286-1.116 2.953-4.366 5.955-4.405h.01Z" fill="#231F20"/><path d="M67.378 96.824s3.392 3.658 3.918 5.064c.77-1.154 2.602-.63 2.602-.63-1.49 4.094-.272 6.519 4.913 6.82.877.049 2.358.146 3.538.214 1.384.019 2.086.698 2.768 1.853.253.436.419.931.263 1.649-.41.078-.887.078-1.462-.049.156.777.058 1.873-.283 3.095-.039.039-.058.078-.097.126.02-.019.049-.029.078-.048-.42 1.504-1.199 3.192-2.359 4.744-2.125 2.852-2.476 10.459-1.238 12.68 1.063-5.074 2.106-8.11 3.694-10.167 1.589-2.057 2.32-6.782 3.733-7.732 1.413-.951 3.538-1.902 3.363-4.754-.127-2.106-.36-3.26-1.326-4.55-.711-2.028-4.795-4.104-3.119-9.518-1.208 1.708-2.436 2.63-2.777 4.385-.897-1.018-1.677-1.416-3.655-2.095-4.825-1.66-12.564-1.067-12.564-1.067l.01-.02Z" fill="#231F20"/><path d="m74.902 101.093 2.515-.65s2.612-.33 4.386 1.717c1.18 1.368 1.628 2.144 1.628 2.144l-.683.641s-1.345 1.921-3.635 1.28c-2.3-.64-3.246-2.561-3.723-3.851l-.488-1.291v.01Z" fill="#78A22F"/><path d="M77.72 100.501c-.576.572-.469 1.601.233 2.299.702.699 1.735.806 2.31.233.575-.572.468-1.601-.234-2.299-.702-.699-1.735-.805-2.3-.233h-.01Z" fill="#231F20"/><path d="M79.542 102.005c-.283.281-.234.795.117 1.135.35.349.857.397 1.15.116.282-.281.234-.795-.117-1.135-.351-.349-.858-.398-1.15-.116Z" fill="#fff"/><path d="M117.388 97.891c-1.979.68-2.768 1.077-3.655 2.096-.351-1.756-1.569-2.678-2.778-4.385 1.676 5.403-2.407 7.489-3.119 9.517-.965 1.29-1.189 2.445-1.325 4.55-.176 2.852 1.949 3.803 3.362 4.754 1.413.951 2.144 5.676 3.733 7.732 1.589 2.057 2.632 5.103 3.694 10.168 1.238-2.222.887-9.818-1.238-12.68a14.847 14.847 0 0 1-2.358-4.745c.029.02.048.03.078.049-.039-.049-.059-.087-.098-.126-.331-1.223-.439-2.319-.283-3.095-.575.126-1.052.126-1.462.048-.165-.718 0-1.212.264-1.649.692-1.154 1.384-1.834 2.768-1.853 1.169-.068 2.66-.165 3.538-.213 5.185-.301 6.403-2.727 4.912-6.821 0 0 1.823-.514 2.602.631.527-1.397 3.918-5.064 3.918-5.064s-7.738-.592-12.563 1.067l.01.02Z" fill="#231F20"/><path d="m122.398 101.093-2.515-.65s-2.612-.33-4.386 1.717c-1.179 1.368-1.638 2.144-1.638 2.144l.673.641s1.345 1.921 3.645 1.28c2.291-.64 3.246-2.561 3.723-3.851l.488-1.291.01.01Z" fill="#78A22F"/><path d="M119.581 100.501c.575.572.468 1.601-.234 2.299-.702.699-1.735.806-2.31.233-.575-.572-.468-1.601.234-2.299.702-.699 1.735-.805 2.31-.233Z" fill="#231F20"/><path d="M117.758 102.005c.283.281.234.795-.117 1.135-.351.349-.858.397-1.14.116-.283-.281-.234-.795.117-1.135.351-.349.857-.398 1.14-.116Z" fill="#fff"/><path d="M116.286 64.663c-3.664-1.494-12.787-1.67-15.068-3.221-.935-.64-2.154-1.475-2.466-1.679h-.185a630.19 630.19 0 0 0-2.466 1.679c-2.28 1.552-11.403 1.727-15.068 3.22-5.692 2.32-9.708 10.498-9.708 10.498s7.379-7.577 14.026-7.577 9.434-1.688 11.53-2.979c.906-.562 1.306-1.6 1.53-2.522 0 0 .098-.437.234-.437h.01c.146 0 .243.447.243.447.225.902.624 1.95 1.531 2.512 2.095 1.29 4.883 2.979 11.53 2.979 6.647 0 14.025 7.577 14.025 7.577s-4.015-8.179-9.707-10.497h.009ZM100.897 81.388c4.639.291 8.567 2.435 10.76 3.114 2.154.67 6.169.136 7.066 3.687.887 3.551 1.482 6.51 1.482 6.51s-2.798-5.268-4.874-6.452c-2.076-1.183-7.232-.98-10.273-3.609-1.315-1.135-4.161-3.25-4.161-3.25ZM96.433 81.388c-4.64.291-8.568 2.435-10.76 3.114-2.164.67-6.17.136-7.067 3.687-.887 3.551-1.481 6.51-1.481 6.51s2.797-5.268 4.873-6.452c2.076-1.183 7.232-.98 10.273-3.609 1.316-1.135 4.162-3.25 4.162-3.25Z" fill="#231F20"/><path d="M152.632 98.036c-.381-.62-.751-1.251-1.141-1.892 0 .049.02.107.02.146 1.179 5.317.692 9.498.692 9.498s-4.045-7.81-4.045-5.404c0 13.583-2.456 17.822-2.456 17.822s-.517-6.49-.897-5.083c-.38 1.406-5.614 15.629-8.441 19.044.41-2.61.439-5.472-.302-6.626-.76 1.174-1.335 2.057-1.53 2.406a102.48 102.48 0 0 0-1.783 3.425c-.439-1.378-1.18-2.271-1.18-2.271s.185 5.074-2.095 6.569c-1.833 1.203-4.416 1.115-5.741 1.503-1.326.883-.565 5.87 2.329 4.715.078-.029.137-.048.205-.068 3.47-1.494 8.255-4.21 14.61-12.757 2.388-2.251 2.661 1.727 2.125 5.161 2.31-2.784 4.785-12.147 5.858-14.892.097-.204.195-.408.282-.621.838-1.368 1.472 4.143 1.472 4.143s1.998-3.454 1.998-14.524c0-1.96 3.294 4.405 3.294 4.405s-.175-9.586-3.294-14.68l.02-.019Z" fill="#B3B3B3"/><path d="M66.16 58.822c-1.072-3.192-5.868-7.577-9.98-10.652-5.703-4.26 4.19 6.733 5.974 11.7.419 1.174.526 2.377.458 3.56-1.218-1.047-2.544-1.882-2.544-1.882s1.794 3.745 1.764 5.744v.048c-.672 2.125-1.491 3.813-1.384 4.483.234 1.377 0-2.358 3.83-4.87 1.131-.738 1.852-1.475 2.281-2.222 1.014-1.786.341-3.658-.409-5.909h.01Z" fill="#fff"/><path d="M60.458 71.822c-.117-.67.712-2.357 1.384-4.482v-.048c.03-1.999-1.764-5.744-1.764-5.744s1.316.825 2.544 1.882c.068-1.183-.04-2.386-.458-3.56-1.443-4.007-8.148-11.924-7.7-12.603-.068.078-.156.126-.185.514-.283 3.94-.848 7.83-.205 11.866a24.026 24.026 0 0 1 1.12-1.368s-.438 2.58-.33 4.598c1.588 4.57 5.34 10.032 5.692 9.256 0 0-.059-.088-.088-.301l-.01-.01Z" fill="#231F20"/></g><defs><clipPath id="a"><path fill="#fff" d="M0 0h200v172.973H0z"/></clipPath></defs></svg>