<svg xmlns="http://www.w3.org/2000/svg" width="500" height="500" viewBox="0 0 500 500" version="1.1"><path d="M 326.500 153.093 C 296.798 156.010, 270.129 171.400, 255.250 194.210 C 250.485 201.514, 244.975 213.226, 243.470 219.250 L 242.783 222 263.373 222 C 283.913 222, 283.963 221.995, 284.449 219.750 C 288.429 201.371, 292.348 190.787, 298.879 180.783 C 307.285 167.906, 318.450 160.203, 331.760 158.098 C 356.587 154.171, 373.708 171.573, 381.847 209.005 C 383.436 216.315, 383.960 217.453, 385.597 217.163 C 388.484 216.651, 420.447 207.850, 420.865 207.452 C 421.496 206.850, 414.310 194.642, 409.375 187.931 C 390.190 161.842, 361.259 149.680, 326.500 153.093 M 123.336 163.750 C 123.404 170.010, 119.514 186.204, 110.470 217.313 L 109.070 222.126 111.773 221.813 C 114.426 221.506, 114.615 220.989, 122.108 193.500 C 129.574 166.110, 129.764 165.587, 130.845 169.500 C 131.452 171.700, 134.966 184.412, 138.654 197.750 L 145.359 222 166.648 222 C 183.246 222, 187.841 221.725, 187.499 220.750 C 187.090 219.582, 173.561 170.621, 171.058 161.250 L 169.923 157 146.593 157 L 123.263 157 123.336 163.750 M 148.206 236.512 C 146.010 241.034, 145.139 245.083, 147.080 241.750 C 148.351 239.568, 153.827 239.387, 154.638 241.500 C 154.955 242.325, 155.590 243, 156.050 243 C 157.122 243, 152.610 232.703, 151.355 232.285 C 150.837 232.112, 149.420 234.014, 148.206 236.512 M 173.124 237.157 C 171.945 239.993, 171.199 242.533, 171.467 242.800 C 171.734 243.067, 172.237 242.547, 172.583 241.643 C 173.423 239.456, 180 239.329, 180 241.500 C 180 242.325, 180.456 243, 181.013 243 C 181.590 243, 181.327 241.383, 180.405 239.250 C 179.513 237.188, 178.554 234.713, 178.275 233.750 C 177.351 230.568, 175.297 231.927, 173.124 237.157 M 198.136 237.690 C 198.211 240.885, 198.467 242.488, 198.706 241.250 C 198.944 240.012, 199.823 239, 200.659 239 C 201.495 239, 203.064 240.012, 204.146 241.250 C 205.983 243.351, 206.046 243.361, 205.103 241.403 C 204.417 239.979, 204.426 238.974, 205.131 238.269 C 205.702 237.698, 206.019 236.166, 205.835 234.865 C 205.561 232.928, 204.822 232.444, 201.750 232.190 L 198 231.879 198.136 237.690 M 222.005 232.550 C 222.002 233.127, 222.484 234.084, 223.075 234.675 C 223.666 235.266, 224.771 237.493, 225.531 239.625 C 226.663 242.800, 226.921 243.049, 226.960 241 C 226.986 239.625, 227.899 237.037, 228.989 235.250 C 230.079 233.463, 230.599 232, 230.146 232 C 229.692 232, 228.757 233.238, 228.067 234.750 L 226.813 237.500 224.412 234.500 C 223.091 232.850, 222.008 231.972, 222.005 232.550 M 247.624 237.250 C 245.406 242.234, 245.048 245.453, 247.125 241.742 C 248.413 239.440, 253.578 239.446, 254.920 241.750 C 255.481 242.713, 255.953 242.950, 255.970 242.277 C 256.014 240.473, 251.737 232, 250.781 232 C 250.330 232, 248.909 234.363, 247.624 237.250 M 272 237.440 C 272 242.921, 272.042 243, 274.929 243 C 278.245 243, 281.404 240.433, 280.259 238.669 C 279.842 238.026, 279.500 236.375, 279.500 235 C 279.500 232.833, 279.001 232.459, 275.750 232.190 L 272 231.879 272 237.440 M 297.136 237.750 C 297.211 240.912, 297.467 242.488, 297.706 241.250 C 298.260 238.374, 301.541 238.273, 303.046 241.086 C 303.660 242.233, 304.415 242.919, 304.724 242.610 C 305.032 242.301, 304.808 241.474, 304.225 240.771 C 303.466 239.857, 303.557 238.959, 304.544 237.609 C 306.678 234.690, 304.722 232, 300.465 232 L 297 232 297.136 237.750 M 323.124 237.157 C 321.945 239.993, 321.199 242.533, 321.467 242.800 C 321.734 243.067, 322.237 242.547, 322.583 241.643 C 323.423 239.456, 330 239.329, 330 241.500 C 330 242.325, 330.456 243, 331.013 243 C 331.590 243, 331.327 241.383, 330.405 239.250 C 329.513 237.188, 328.554 234.713, 328.275 233.750 C 327.351 230.568, 325.297 231.927, 323.124 237.157 M 347.700 232.699 C 349.567 233.061, 349.955 233.910, 350.265 238.313 L 350.630 243.500 350.815 238.320 C 350.976 233.814, 351.293 233.083, 353.250 232.706 C 354.488 232.467, 353.250 232.272, 350.500 232.272 C 347.750 232.272, 346.490 232.464, 347.700 232.699 M 199 235.500 C 199 237.782, 199.366 238.091, 201.750 237.816 C 203.728 237.589, 204.500 236.938, 204.500 235.500 C 204.500 234.062, 203.728 233.411, 201.750 233.184 C 199.366 232.909, 199 233.218, 199 235.500 M 273 234.531 C 273 236.620, 275.695 237.498, 277.502 235.999 C 279.443 234.388, 278.489 233, 275.441 233 C 273.916 233, 273 233.574, 273 234.531 M 298 235.500 C 298 237.782, 298.366 238.091, 300.750 237.816 C 302.728 237.589, 303.500 236.938, 303.500 235.500 C 303.500 234.062, 302.728 233.411, 300.750 233.184 C 298.366 232.909, 298 233.218, 298 235.500 M 149.607 235.582 C 148.593 238.225, 148.909 239, 151 239 C 152.100 239, 153 238.587, 153 238.082 C 153 236.438, 151.805 234, 151 234 C 150.568 234, 149.941 234.712, 149.607 235.582 M 175.044 235.918 C 173.629 238.562, 174.076 239.285, 176.844 238.831 C 178.656 238.534, 178.728 238.255, 177.555 236.082 L 176.250 233.664 175.044 235.918 M 249.607 235.582 C 248.584 238.249, 248.913 239, 251.107 239 C 252.617 239, 253.042 238.552, 252.607 237.418 C 252.273 236.548, 252 235.423, 252 234.918 C 252 233.401, 250.259 233.884, 249.607 235.582 M 325.044 235.918 C 323.629 238.562, 324.076 239.285, 326.844 238.831 C 328.656 238.534, 328.728 238.255, 327.555 236.082 L 326.250 233.664 325.044 235.918 M 273 239.441 C 273 241.418, 274.628 242.253, 277.009 241.497 C 280.175 240.492, 279.456 238, 276 238 C 274.055 238, 273 238.507, 273 239.441 M 150.536 256.960 C 146.861 261.021, 152.090 267.939, 156.641 265.035 C 158.385 263.922, 158.387 263.884, 156.678 264.421 C 153.706 265.353, 151 263.261, 151 260.032 C 151 256.807, 153.492 255.387, 157.125 256.540 C 158.555 256.994, 159.027 256.852, 158.566 256.107 C 157.456 254.310, 152.454 254.841, 150.536 256.960 M 175.300 260.500 C 175.300 263.800, 175.487 265.262, 175.716 263.750 C 176.076 261.377, 176.594 261, 179.500 261 C 182.406 261, 182.924 261.377, 183.284 263.750 C 183.513 265.262, 183.700 263.800, 183.700 260.500 C 183.700 257.200, 183.513 255.738, 183.284 257.250 C 182.924 259.623, 182.406 260, 179.500 260 C 176.594 260, 176.076 259.623, 175.716 257.250 C 175.487 255.738, 175.300 257.200, 175.300 260.500 M 201.250 260.500 C 201.277 263.800, 201.487 265.262, 201.716 263.750 C 202.076 261.377, 202.594 261, 205.500 261 C 208.406 261, 208.924 261.377, 209.284 263.750 C 209.513 265.262, 209.700 263.800, 209.700 260.500 C 209.700 257.200, 209.510 255.764, 209.278 257.308 C 208.906 259.783, 208.484 260.079, 205.717 259.808 C 203.351 259.576, 202.409 258.885, 201.889 257 C 201.444 255.386, 201.217 256.627, 201.250 260.500 M 228.500 259.720 C 225.804 266.074, 225.630 266.800, 227.297 264.750 C 229.129 262.497, 234.566 262.426, 235.417 264.643 C 235.763 265.547, 236.266 266.067, 236.533 265.800 C 237.353 264.981, 232.808 255, 231.617 255.004 C 231.003 255.006, 229.600 257.128, 228.500 259.720 M 252.700 255.699 C 254.567 256.061, 254.955 256.910, 255.265 261.313 L 255.630 266.500 255.815 261.320 C 255.976 256.814, 256.293 256.083, 258.250 255.706 C 259.488 255.467, 258.250 255.272, 255.500 255.272 C 252.750 255.272, 251.490 255.464, 252.700 255.699 M 276.218 260.500 C 276.206 264.290, 276.449 265.606, 276.877 264.074 C 277.821 260.697, 279.429 260.479, 281.384 263.463 C 282.298 264.858, 283.509 266, 284.074 266 C 284.639 266, 283.967 264.512, 282.580 262.693 L 280.058 259.387 282.251 257.193 C 283.457 255.987, 283.973 255, 283.397 255 C 282.820 255, 281.258 256.164, 279.924 257.587 L 277.500 260.174 276.868 257.337 C 276.444 255.431, 276.231 256.469, 276.218 260.500 M 300 258.845 C 300 264.852, 304.815 268.042, 308.429 264.429 C 310.157 262.700, 310.624 255, 309 255 C 308.450 255, 308 256.977, 308 259.393 C 308 262.528, 307.534 263.965, 306.373 264.410 C 303.812 265.393, 302 263.101, 302 258.878 C 302 256.745, 301.550 255, 301 255 C 300.450 255, 300 256.730, 300 258.845 M 327.157 260.250 L 327 266 330.250 265.900 C 333.245 265.808, 333.304 265.746, 331 265.111 C 328.882 264.526, 328.409 263.663, 327.907 259.460 L 327.314 254.500 327.157 260.250 M 349.310 260.500 C 349.315 263.800, 349.502 265.029, 349.725 263.232 C 349.947 261.435, 349.943 258.735, 349.715 257.232 C 349.486 255.729, 349.304 257.200, 349.310 260.500 M 230.417 258.500 C 230.018 259.600, 229.509 260.837, 229.287 261.250 C 229.064 261.663, 230.034 262, 231.441 262 C 234.356 262, 234.607 261.208, 232.571 258.441 C 231.161 256.524, 231.134 256.525, 230.417 258.500 M 94.469 276.250 C 94.212 276.938, 90.644 289.760, 86.541 304.744 C 82.438 319.729, 77.756 335.141, 76.138 338.994 L 73.194 346 77.578 346 C 82.388 346, 82.252 346.206, 83.501 337 C 83.837 334.525, 87.354 320.575, 91.317 306 L 98.521 279.500 129.968 279.500 L 161.414 279.500 168.272 304.500 C 172.044 318.250, 175.650 333.212, 176.286 337.750 L 177.443 346 201.222 346 C 214.300 346, 225 345.821, 225 345.603 C 225 345.384, 223.661 342.506, 222.024 339.207 C 218.292 331.685, 215.851 324.066, 208.420 296.750 L 202.504 275 148.721 275 C 106.610 275, 94.836 275.271, 94.469 276.250 M 242.376 276.750 C 242.657 277.712, 243.632 281.131, 244.543 284.347 C 253.256 315.117, 277.947 338.930, 309.505 347.001 C 340.693 354.978, 372.355 349.544, 392.771 332.710 C 406.534 321.362, 418.562 302.007, 425.059 280.750 L 426.817 275 424.447 275 C 422.510 275, 421.871 275.766, 420.948 279.195 C 419.463 284.708, 414.409 296.057, 410.227 303.269 C 396.153 327.541, 373.206 340.200, 345.954 338.727 C 316.254 337.122, 295.505 317.763, 286.850 283.581 L 284.677 275 263.271 275 C 243.357 275, 241.901 275.122, 242.376 276.750" stroke="none" fill="#0953b0" fill-rule="evenodd"/><path d="M 0 250.002 L 0 500.004 250.250 499.752 L 500.500 499.500 500.752 249.750 L 501.004 0 250.502 0 L 0 0 0 250.002 M 0.492 250.500 C 0.492 388, 0.608 444.101, 0.750 375.170 C 0.892 306.238, 0.892 193.738, 0.750 125.170 C 0.608 56.601, 0.492 113, 0.492 250.500 M 326.500 153.093 C 296.798 156.010, 270.129 171.400, 255.250 194.210 C 250.485 201.514, 244.975 213.226, 243.470 219.250 L 242.783 222 263.373 222 C 283.913 222, 283.963 221.995, 284.449 219.750 C 288.429 201.371, 292.348 190.787, 298.879 180.783 C 307.285 167.906, 318.450 160.203, 331.760 158.098 C 356.587 154.171, 373.708 171.573, 381.847 209.005 C 383.436 216.315, 383.960 217.453, 385.597 217.163 C 388.484 216.651, 420.447 207.850, 420.865 207.452 C 421.496 206.850, 414.310 194.642, 409.375 187.931 C 390.190 161.842, 361.259 149.680, 326.500 153.093 M 123.336 163.750 C 123.404 170.010, 119.514 186.204, 110.470 217.313 L 109.070 222.126 111.773 221.813 C 114.426 221.506, 114.615 220.989, 122.108 193.500 C 129.574 166.110, 129.764 165.587, 130.845 169.500 C 131.452 171.700, 134.966 184.412, 138.654 197.750 L 145.359 222 166.648 222 C 183.246 222, 187.841 221.725, 187.499 220.750 C 187.090 219.582, 173.561 170.621, 171.058 161.250 L 169.923 157 146.593 157 L 123.263 157 123.336 163.750 M 148.206 236.512 C 146.010 241.034, 145.139 245.083, 147.080 241.750 C 148.351 239.568, 153.827 239.387, 154.638 241.500 C 154.955 242.325, 155.590 243, 156.050 243 C 157.122 243, 152.610 232.703, 151.355 232.285 C 150.837 232.112, 149.420 234.014, 148.206 236.512 M 173.124 237.157 C 171.945 239.993, 171.199 242.533, 171.467 242.800 C 171.734 243.067, 172.237 242.547, 172.583 241.643 C 173.423 239.456, 180 239.329, 180 241.500 C 180 242.325, 180.456 243, 181.013 243 C 181.590 243, 181.327 241.383, 180.405 239.250 C 179.513 237.188, 178.554 234.713, 178.275 233.750 C 177.351 230.568, 175.297 231.927, 173.124 237.157 M 198.136 237.690 C 198.211 240.885, 198.467 242.488, 198.706 241.250 C 198.944 240.012, 199.823 239, 200.659 239 C 201.495 239, 203.064 240.012, 204.146 241.250 C 205.983 243.351, 206.046 243.361, 205.103 241.403 C 204.417 239.979, 204.426 238.974, 205.131 238.269 C 205.702 237.698, 206.019 236.166, 205.835 234.865 C 205.561 232.928, 204.822 232.444, 201.750 232.190 L 198 231.879 198.136 237.690 M 222.005 232.550 C 222.002 233.127, 222.484 234.084, 223.075 234.675 C 223.666 235.266, 224.771 237.493, 225.531 239.625 C 226.663 242.800, 226.921 243.049, 226.960 241 C 226.986 239.625, 227.899 237.037, 228.989 235.250 C 230.079 233.463, 230.599 232, 230.146 232 C 229.692 232, 228.757 233.238, 228.067 234.750 L 226.813 237.500 224.412 234.500 C 223.091 232.850, 222.008 231.972, 222.005 232.550 M 247.624 237.250 C 245.406 242.234, 245.048 245.453, 247.125 241.742 C 248.413 239.440, 253.578 239.446, 254.920 241.750 C 255.481 242.713, 255.953 242.950, 255.970 242.277 C 256.014 240.473, 251.737 232, 250.781 232 C 250.330 232, 248.909 234.363, 247.624 237.250 M 272 237.440 C 272 242.921, 272.042 243, 274.929 243 C 278.245 243, 281.404 240.433, 280.259 238.669 C 279.842 238.026, 279.500 236.375, 279.500 235 C 279.500 232.833, 279.001 232.459, 275.750 232.190 L 272 231.879 272 237.440 M 297.136 237.750 C 297.211 240.912, 297.467 242.488, 297.706 241.250 C 298.260 238.374, 301.541 238.273, 303.046 241.086 C 303.660 242.233, 304.415 242.919, 304.724 242.610 C 305.032 242.301, 304.808 241.474, 304.225 240.771 C 303.466 239.857, 303.557 238.959, 304.544 237.609 C 306.678 234.690, 304.722 232, 300.465 232 L 297 232 297.136 237.750 M 323.124 237.157 C 321.945 239.993, 321.199 242.533, 321.467 242.800 C 321.734 243.067, 322.237 242.547, 322.583 241.643 C 323.423 239.456, 330 239.329, 330 241.500 C 330 242.325, 330.456 243, 331.013 243 C 331.590 243, 331.327 241.383, 330.405 239.250 C 329.513 237.188, 328.554 234.713, 328.275 233.750 C 327.351 230.568, 325.297 231.927, 323.124 237.157 M 347.700 232.699 C 349.567 233.061, 349.955 233.910, 350.265 238.313 L 350.630 243.500 350.815 238.320 C 350.976 233.814, 351.293 233.083, 353.250 232.706 C 354.488 232.467, 353.250 232.272, 350.500 232.272 C 347.750 232.272, 346.490 232.464, 347.700 232.699 M 199 235.500 C 199 237.782, 199.366 238.091, 201.750 237.816 C 203.728 237.589, 204.500 236.938, 204.500 235.500 C 204.500 234.062, 203.728 233.411, 201.750 233.184 C 199.366 232.909, 199 233.218, 199 235.500 M 273 234.531 C 273 236.620, 275.695 237.498, 277.502 235.999 C 279.443 234.388, 278.489 233, 275.441 233 C 273.916 233, 273 233.574, 273 234.531 M 298 235.500 C 298 237.782, 298.366 238.091, 300.750 237.816 C 302.728 237.589, 303.500 236.938, 303.500 235.500 C 303.500 234.062, 302.728 233.411, 300.750 233.184 C 298.366 232.909, 298 233.218, 298 235.500 M 149.607 235.582 C 148.593 238.225, 148.909 239, 151 239 C 152.100 239, 153 238.587, 153 238.082 C 153 236.438, 151.805 234, 151 234 C 150.568 234, 149.941 234.712, 149.607 235.582 M 175.044 235.918 C 173.629 238.562, 174.076 239.285, 176.844 238.831 C 178.656 238.534, 178.728 238.255, 177.555 236.082 L 176.250 233.664 175.044 235.918 M 249.607 235.582 C 248.584 238.249, 248.913 239, 251.107 239 C 252.617 239, 253.042 238.552, 252.607 237.418 C 252.273 236.548, 252 235.423, 252 234.918 C 252 233.401, 250.259 233.884, 249.607 235.582 M 325.044 235.918 C 323.629 238.562, 324.076 239.285, 326.844 238.831 C 328.656 238.534, 328.728 238.255, 327.555 236.082 L 326.250 233.664 325.044 235.918 M 273 239.441 C 273 241.418, 274.628 242.253, 277.009 241.497 C 280.175 240.492, 279.456 238, 276 238 C 274.055 238, 273 238.507, 273 239.441 M 150.536 256.960 C 146.861 261.021, 152.090 267.939, 156.641 265.035 C 158.385 263.922, 158.387 263.884, 156.678 264.421 C 153.706 265.353, 151 263.261, 151 260.032 C 151 256.807, 153.492 255.387, 157.125 256.540 C 158.555 256.994, 159.027 256.852, 158.566 256.107 C 157.456 254.310, 152.454 254.841, 150.536 256.960 M 175.300 260.500 C 175.300 263.800, 175.487 265.262, 175.716 263.750 C 176.076 261.377, 176.594 261, 179.500 261 C 182.406 261, 182.924 261.377, 183.284 263.750 C 183.513 265.262, 183.700 263.800, 183.700 260.500 C 183.700 257.200, 183.513 255.738, 183.284 257.250 C 182.924 259.623, 182.406 260, 179.500 260 C 176.594 260, 176.076 259.623, 175.716 257.250 C 175.487 255.738, 175.300 257.200, 175.300 260.500 M 201.250 260.500 C 201.277 263.800, 201.487 265.262, 201.716 263.750 C 202.076 261.377, 202.594 261, 205.500 261 C 208.406 261, 208.924 261.377, 209.284 263.750 C 209.513 265.262, 209.700 263.800, 209.700 260.500 C 209.700 257.200, 209.510 255.764, 209.278 257.308 C 208.906 259.783, 208.484 260.079, 205.717 259.808 C 203.351 259.576, 202.409 258.885, 201.889 257 C 201.444 255.386, 201.217 256.627, 201.250 260.500 M 228.500 259.720 C 225.804 266.074, 225.630 266.800, 227.297 264.750 C 229.129 262.497, 234.566 262.426, 235.417 264.643 C 235.763 265.547, 236.266 266.067, 236.533 265.800 C 237.353 264.981, 232.808 255, 231.617 255.004 C 231.003 255.006, 229.600 257.128, 228.500 259.720 M 252.700 255.699 C 254.567 256.061, 254.955 256.910, 255.265 261.313 L 255.630 266.500 255.815 261.320 C 255.976 256.814, 256.293 256.083, 258.250 255.706 C 259.488 255.467, 258.250 255.272, 255.500 255.272 C 252.750 255.272, 251.490 255.464, 252.700 255.699 M 276.218 260.500 C 276.206 264.290, 276.449 265.606, 276.877 264.074 C 277.821 260.697, 279.429 260.479, 281.384 263.463 C 282.298 264.858, 283.509 266, 284.074 266 C 284.639 266, 283.967 264.512, 282.580 262.693 L 280.058 259.387 282.251 257.193 C 283.457 255.987, 283.973 255, 283.397 255 C 282.820 255, 281.258 256.164, 279.924 257.587 L 277.500 260.174 276.868 257.337 C 276.444 255.431, 276.231 256.469, 276.218 260.500 M 300 258.845 C 300 264.852, 304.815 268.042, 308.429 264.429 C 310.157 262.700, 310.624 255, 309 255 C 308.450 255, 308 256.977, 308 259.393 C 308 262.528, 307.534 263.965, 306.373 264.410 C 303.812 265.393, 302 263.101, 302 258.878 C 302 256.745, 301.550 255, 301 255 C 300.450 255, 300 256.730, 300 258.845 M 327.157 260.250 L 327 266 330.250 265.900 C 333.245 265.808, 333.304 265.746, 331 265.111 C 328.882 264.526, 328.409 263.663, 327.907 259.460 L 327.314 254.500 327.157 260.250 M 349.310 260.500 C 349.315 263.800, 349.502 265.029, 349.725 263.232 C 349.947 261.435, 349.943 258.735, 349.715 257.232 C 349.486 255.729, 349.304 257.200, 349.310 260.500 M 230.417 258.500 C 230.018 259.600, 229.509 260.837, 229.287 261.250 C 229.064 261.663, 230.034 262, 231.441 262 C 234.356 262, 234.607 261.208, 232.571 258.441 C 231.161 256.524, 231.134 256.525, 230.417 258.500 M 94.469 276.250 C 94.212 276.938, 90.644 289.760, 86.541 304.744 C 82.438 319.729, 77.756 335.141, 76.138 338.994 L 73.194 346 77.578 346 C 82.388 346, 82.252 346.206, 83.501 337 C 83.837 334.525, 87.354 320.575, 91.317 306 L 98.521 279.500 129.968 279.500 L 161.414 279.500 168.272 304.500 C 172.044 318.250, 175.650 333.212, 176.286 337.750 L 177.443 346 201.222 346 C 214.300 346, 225 345.821, 225 345.603 C 225 345.384, 223.661 342.506, 222.024 339.207 C 218.292 331.685, 215.851 324.066, 208.420 296.750 L 202.504 275 148.721 275 C 106.610 275, 94.836 275.271, 94.469 276.250 M 242.376 276.750 C 242.657 277.712, 243.632 281.131, 244.543 284.347 C 253.256 315.117, 277.947 338.930, 309.505 347.001 C 340.693 354.978, 372.355 349.544, 392.771 332.710 C 406.534 321.362, 418.562 302.007, 425.059 280.750 L 426.817 275 424.447 275 C 422.510 275, 421.871 275.766, 420.948 279.195 C 419.463 284.708, 414.409 296.057, 410.227 303.269 C 396.153 327.541, 373.206 340.200, 345.954 338.727 C 316.254 337.122, 295.505 317.763, 286.850 283.581 L 284.677 275 263.271 275 C 243.357 275, 241.901 275.122, 242.376 276.750" stroke="none" fill="#fbfbfb" fill-rule="evenodd"/></svg>